<svg preserveAspectRatio="none" width="100%" height="100%" overflow="visible" style="display: block;" viewBox="0 0 34 34" fill="none" xmlns="http://www.w3.org/2000/svg">
<g id="Icons / expand_circle_right_filled">
<path id="Vector" d="M17.9562 17L13.6 21.3562L15.5833 23.375L21.9583 17L15.5833 10.625L13.6 12.6437L17.9562 17ZM17 31.1667C15.0403 31.1667 13.1986 30.7948 11.475 30.051C9.75139 29.3073 8.25208 28.2979 6.97708 27.0229C5.70208 25.7479 4.69271 24.2486 3.94896 22.525C3.20521 20.8014 2.83333 18.9597 2.83333 17C2.83333 15.0403 3.20521 13.1986 3.94896 11.475C4.69271 9.75139 5.70208 8.25208 6.97708 6.97708C8.25208 5.70208 9.75139 4.69271 11.475 3.94896C13.1986 3.20521 15.0403 2.83333 17 2.83333C18.9597 2.83333 20.8014 3.20521 22.525 3.94896C24.2486 4.69271 25.7479 5.70208 27.0229 6.97708C28.2979 8.25208 29.3073 9.75139 30.051 11.475C30.7948 13.1986 31.1667 15.0403 31.1667 17C31.1667 18.9597 30.7948 20.8014 30.051 22.525C29.3073 24.2486 28.2979 25.7479 27.0229 27.0229C25.7479 28.2979 24.2486 29.3073 22.525 30.051C20.8014 30.7948 18.9597 31.1667 17 31.1667Z" fill="var(--fill-0, #23BDBB)"/>
</g>
</svg>
