<svg width="33" height="29" viewBox="0 0 33 29" fill="none" xmlns="http://www.w3.org/2000/svg">
<g clip-path="url(#clip0_759_5496)">
<path d="M20.4161 0.000698829C22.0032 0.296303 23.2425 1.35643 23.7667 2.95674L24.2599 4.46272H28.9351C31.0292 4.46272 32.657 5.9652 32.9993 8.07078L32.9504 25.2822C32.9449 27.255 31.2662 28.6855 29.4469 29.0007H3.55653C1.64153 28.6946 0.327203 27.2942 0 25.4465V8.01766C0 6.02321 2.22705 4.4725 3.91886 4.46901L8.74425 4.45993L9.24711 2.90224C9.75686 1.32358 11.0119 0.296303 12.5791 0H20.4154L20.4161 0.000698829ZM28.9661 26.77C30.0448 26.77 30.7957 25.9098 30.7964 24.8804V8.58511C30.7964 7.50472 29.9932 6.69268 28.9379 6.69338H23.5104C22.9979 6.69408 22.5777 6.39778 22.4172 5.91559L21.603 3.4613C21.3674 2.75059 20.6972 2.23555 19.9346 2.23555H13.0599C12.2966 2.23555 11.6264 2.75129 11.3908 3.4613L10.5759 5.91838C10.4154 6.40127 9.99589 6.69478 9.48407 6.69478H4.05801C3.00338 6.69408 2.19812 7.50612 2.19812 8.58581L2.20225 24.9517C2.20225 26.0041 3.05367 26.7728 4.06696 26.7728L28.9661 26.7707V26.77Z" fill="white"/>
<path d="M24.7449 16.1768C24.7449 20.796 21.052 24.5411 16.4973 24.5411C11.9427 24.5411 8.24976 20.796 8.24976 16.1768C8.24976 11.5575 11.9427 7.8125 16.4973 7.8125C21.052 7.8125 24.7449 11.5575 24.7449 16.1768ZM22.5441 16.1761C22.5441 12.7896 19.8369 10.0439 16.4973 10.0439C13.1578 10.0439 10.4506 12.7896 10.4506 16.1761C10.4506 19.5626 13.1578 22.3083 16.4973 22.3083C19.8369 22.3083 22.5441 19.5626 22.5441 16.1761Z" fill="white"/>
<path d="M27.496 11.1483C28.1024 11.1483 28.594 10.6499 28.594 10.0351C28.594 9.42029 28.1024 8.92188 27.496 8.92188C26.8896 8.92188 26.3979 9.42029 26.3979 10.0351C26.3979 10.6499 26.8896 11.1483 27.496 11.1483Z" fill="white"/>
</g>
<defs>
<clipPath id="clip0_759_5496">
<rect width="33" height="29" fill="white"/>
</clipPath>
</defs>
</svg>
