<svg preserveAspectRatio="none" width="100%" height="100%" overflow="visible" style="display: block;" viewBox="0 0 157.147 173.058" fill="none" xmlns="http://www.w3.org/2000/svg">
<path id="Vector" d="M63.6582 1.18458C63.8972 1.01499 64.1993 0.958277 64.4834 1.03029C64.7674 1.10234 65.0055 1.29572 65.1348 1.55861C66.7155 4.77225 71.0542 13.3355 76.1182 21.5098C78.6511 25.5984 81.3509 29.5668 83.9658 32.7139C86.6157 35.903 89.0585 38.0977 91.0527 38.8477L91.0557 38.8486C96.2575 40.8215 100.655 41.0094 103.98 41.168H103.98C104.738 41.1996 105.617 41.2403 106.355 41.3106C106.724 41.3456 107.082 41.3903 107.382 41.4502C107.531 41.4801 107.686 41.5172 107.831 41.5664C107.926 41.5988 108.064 41.6518 108.204 41.7393L108.343 41.8389L108.419 41.9082C108.491 41.9813 108.553 42.0652 108.6 42.1572C108.904 42.7536 109.467 43.4943 110.24 44.3623C111.004 45.2197 111.921 46.1457 112.891 47.1172C113.68 47.9081 114.544 48.7733 115.271 49.5615C115.967 50.318 116.638 51.1077 116.949 51.7305C117.234 52.3008 117.954 53.1592 119.063 54.1348C120.149 55.0892 121.531 56.0892 123.042 56.959C124.555 57.8298 126.173 58.5556 127.731 58.9795C129.298 59.4055 130.738 59.5085 131.935 59.2139C132.471 59.0723 133.059 58.9022 133.55 58.7783L134.665 58.4697C135.744 58.192 136.729 58.0413 137.75 58.3135C139.087 58.6698 140.338 59.7021 142.083 61.4492C144.138 63.5071 145.312 64.8773 146.078 66.2637C146.848 67.6552 147.176 69.0134 147.646 70.9082H147.645L147.898 71.9219C149.209 77.14 148.801 81.2433 145.774 83.2568L145.775 83.2578C144.766 83.9408 144.406 84.6237 144.406 85.2901C144.406 85.2952 144.406 85.3006 144.406 85.3057C144.396 85.9561 144.7 86.5818 145.365 87.2832C146.043 87.9979 146.981 88.671 148.049 89.4326H148.048C148.878 90.0179 149.815 90.6747 150.46 91.3203C151.661 92.5234 152.905 94.0237 153.914 95.3613C154.906 96.6765 155.734 97.9171 156.052 98.5918C156.196 98.8987 156.175 99.2579 155.996 99.5459L150.316 108.677C148.764 112.113 147.045 115.159 145.539 117.382C144.783 118.498 144.068 119.428 143.442 120.1C143.131 120.434 142.823 120.726 142.528 120.946C142.26 121.147 141.89 121.376 141.468 121.429C141.427 121.434 141.385 121.437 141.344 121.437C140.548 121.437 139.289 121.691 137.431 122.224C135.599 122.749 133.289 123.511 130.429 124.466L130.43 124.467C128.403 125.149 126.213 125.885 124.339 126.45C123.402 126.733 122.531 126.977 121.79 127.151C121.073 127.32 120.4 127.442 119.894 127.442C118.847 127.442 117.885 127.225 117.043 127.037C117.038 127.036 117.032 127.034 117.027 127.033C115.938 126.773 114.945 126.555 113.974 126.725C113.076 126.881 112.079 127.395 111.083 128.896C109.91 130.685 108.097 132.158 106.364 133.303C104.62 134.455 102.872 135.329 101.784 135.882C101.777 135.885 101.77 135.889 101.763 135.893C101.352 136.089 101.08 136.428 100.967 136.888V137.469C100.967 137.97 100.596 138.393 100.1 138.46L84.71 140.525C84.4578 140.559 84.2021 140.496 83.9951 140.348C82.6627 139.394 80.2849 137.637 78.6338 135.983L78.6279 135.978C76.9716 134.294 74.8606 134.645 72.1514 135.207H72.1484C70.754 135.493 69.173 135.8 67.5059 135.8C65.8523 135.8 64.023 135.497 62.3565 135.214V135.213C60.5156 134.906 58.8837 134.648 57.5576 134.748C56.2782 134.845 55.5037 135.253 55.0713 136.108L55.0684 136.113C54.6362 136.959 54.6881 137.925 54.8633 139.155L54.9443 139.699L54.9453 139.701C55.1143 140.809 55.3087 142.045 55.0957 143.234C54.8689 144.501 54.2011 145.646 52.8418 146.658C49.2874 149.32 38.8701 156.116 32.7061 160.168L32.6983 160.173C30.4804 161.601 28.754 162.765 27.8193 163.378C24.9543 165.293 22.7955 167.986 21.4072 171.432C21.27 171.772 20.9576 172.01 20.5928 172.052C20.2278 172.093 19.869 171.931 19.6592 171.63C15.7877 166.068 9.48537 157.522 4.69825 152.696V152.695C2.67219 150.666 1.68628 149.153 1.40431 147.855C1.09968 146.451 1.66079 145.485 2.02833 144.829C2.53927 143.908 2.91179 143.11 2.48634 142.277C2.4431 142.193 2.41224 142.102 2.39454 142.009C2.31556 141.592 2.36798 141.07 2.44532 140.586C2.52879 140.064 2.66752 139.442 2.84278 138.759C3.1939 137.39 3.70958 135.707 4.28321 133.956C5.43162 130.45 6.83286 126.606 7.67384 124.317C8.56413 121.881 9.06562 120.494 9.34474 119.644C9.62946 118.776 9.64357 118.577 9.64357 118.466C9.64358 118.131 9.72824 117.431 9.8506 116.604C9.97812 115.741 10.1607 114.652 10.3789 113.487C10.8127 111.172 11.4014 108.493 12.0117 106.676V106.675C12.3758 105.595 12.4517 104.126 12.3311 102.326C12.2114 100.541 11.9088 98.5428 11.5899 96.4346V96.4336C11.2133 93.9825 10.8496 91.5785 10.8496 89.7383C10.8495 88.382 10.2281 86.4568 9.1836 84.1309C8.15449 81.8393 6.78536 79.3069 5.41603 76.7715L5.41407 76.7676C4.54607 75.1397 3.63978 73.4608 2.89747 71.9619C2.16574 70.4844 1.54548 69.0895 1.29396 68.0459L1.29493 68.0449C0.916197 66.5394 0.89553 65.3716 1.2754 64.1436C1.63181 62.9916 2.33508 61.8267 3.21485 60.3428C3.98813 58.9883 4.94613 57.4107 6.00489 55.2901C7.15736 52.9817 8.42748 48.8216 9.67579 44.044C10.8827 39.4246 12.045 34.3218 13.043 29.9483C13.035 29.8484 13.0411 29.7461 13.0645 29.6445C13.5369 27.5943 13.9532 25.6995 14.335 24.1065L14.3379 24.0977L14.4014 23.8438L14.4404 23.7217C14.5488 23.4446 14.7762 23.2279 15.0635 23.1348C16.173 22.7753 17.3713 22.4505 18.6836 22.1299L19.4111 21.9414C27.1191 19.8785 40.8846 14.1729 47.46 11.2988C51.2092 9.27728 57.4036 5.62276 63.6582 1.18458Z" fill="var(--fill-0, white)" stroke="var(--stroke-0, #737373)" stroke-width="2" stroke-linejoin="round"/>
</svg>
