<svg preserveAspectRatio="none" width="100%" height="100%" overflow="visible" style="display: block;" viewBox="0 0 24 24" fill="none" xmlns="http://www.w3.org/2000/svg">
<g id="Icons / forest" clip-path="url(#clip0_0_227)">
<g id="Vector">
<path d="M7 22V18H-1.78814e-07L3.85 12H2L9 2L12 6.3L15 2L22 12H20.15L24 18H17V22H13V18H11V22H7ZM16.725 16H20.35L16.475 10H18.15L15 5.5L13.225 8.025L16 12H14.15L16.725 16ZM3.65 16H14.35L10.475 10H12.15L9 5.5L5.85 10H7.525L3.65 16ZM3.65 16H7.525H5.85H12.15H10.475H14.35H3.65ZM16.725 16H14.15H16H13.225H18.15H16.475H20.35H16.725Z" fill="var(--fill-0, #737373)"/>
<path d="M7 22V18H-1.78814e-07L3.85 12H2L9 2L12 6.3L15 2L22 12H20.15L24 18H17V22H13V18H11V22H7ZM16.725 16H20.35L16.475 10H18.15L15 5.5L13.225 8.025L16 12H14.15L16.725 16ZM3.65 16H14.35L10.475 10H12.15L9 5.5L5.85 10H7.525L3.65 16ZM3.65 16H7.525H5.85H12.15H10.475H14.35H3.65ZM16.725 16H14.15H16H13.225H18.15H16.475H20.35H16.725Z" fill="var(--fill-1, black)" fill-opacity="0.2"/>
<path d="M7 22V18H-1.78814e-07L3.85 12H2L9 2L12 6.3L15 2L22 12H20.15L24 18H17V22H13V18H11V22H7ZM16.725 16H20.35L16.475 10H18.15L15 5.5L13.225 8.025L16 12H14.15L16.725 16ZM3.65 16H14.35L10.475 10H12.15L9 5.5L5.85 10H7.525L3.65 16ZM3.65 16H7.525H5.85H12.15H10.475H14.35H3.65ZM16.725 16H14.15H16H13.225H18.15H16.475H20.35H16.725Z" fill="var(--fill-2, black)" fill-opacity="0.2"/>
<path d="M7 22V18H-1.78814e-07L3.85 12H2L9 2L12 6.3L15 2L22 12H20.15L24 18H17V22H13V18H11V22H7ZM16.725 16H20.35L16.475 10H18.15L15 5.5L13.225 8.025L16 12H14.15L16.725 16ZM3.65 16H14.35L10.475 10H12.15L9 5.5L5.85 10H7.525L3.65 16ZM3.65 16H7.525H5.85H12.15H10.475H14.35H3.65ZM16.725 16H14.15H16H13.225H18.15H16.475H20.35H16.725Z" fill="var(--fill-3, black)" fill-opacity="0.2"/>
<path d="M7 22V18H-1.78814e-07L3.85 12H2L9 2L12 6.3L15 2L22 12H20.15L24 18H17V22H13V18H11V22H7ZM16.725 16H20.35L16.475 10H18.15L15 5.5L13.225 8.025L16 12H14.15L16.725 16ZM3.65 16H14.35L10.475 10H12.15L9 5.5L5.85 10H7.525L3.65 16ZM3.65 16H7.525H5.85H12.15H10.475H14.35H3.65ZM16.725 16H14.15H16H13.225H18.15H16.475H20.35H16.725Z" fill="var(--fill-4, black)" fill-opacity="0.2"/>
<path d="M7 22V18H-1.78814e-07L3.85 12H2L9 2L12 6.3L15 2L22 12H20.15L24 18H17V22H13V18H11V22H7ZM16.725 16H20.35L16.475 10H18.15L15 5.5L13.225 8.025L16 12H14.15L16.725 16ZM3.65 16H14.35L10.475 10H12.15L9 5.5L5.85 10H7.525L3.65 16ZM3.65 16H7.525H5.85H12.15H10.475H14.35H3.65ZM16.725 16H14.15H16H13.225H18.15H16.475H20.35H16.725Z" fill="var(--fill-5, black)" fill-opacity="0.2"/>
<path d="M7 22V18H-1.78814e-07L3.85 12H2L9 2L12 6.3L15 2L22 12H20.15L24 18H17V22H13V18H11V22H7ZM16.725 16H20.35L16.475 10H18.15L15 5.5L13.225 8.025L16 12H14.15L16.725 16ZM3.65 16H14.35L10.475 10H12.15L9 5.5L5.85 10H7.525L3.65 16ZM3.65 16H7.525H5.85H12.15H10.475H14.35H3.65ZM16.725 16H14.15H16H13.225H18.15H16.475H20.35H16.725Z" fill="var(--fill-6, black)" fill-opacity="0.2"/>
</g>
</g>
<defs>
<clipPath id="clip0_0_227">
<rect width="24" height="24" fill="white"/>
</clipPath>
</defs>
</svg>
